<svg xmlns="http://www.w3.org/2000/svg" xmlns:xlink="http://www.w3.org/1999/xlink" id="Camada_1" x="0px" y="0px" viewBox="0 0 1080 1080" style="enable-background:new 0 0 1080 1080;" xml:space="preserve"><style type="text/css">	.st0{fill:url(#SVGID_1_);}	.st1{fill:url(#SVGID_2_);}	.st2{fill:url(#SVGID_3_);}	.st3{fill:url(#SVGID_4_);}	.st4{fill:#FFFFFF;}	.st5{fill:url(#SVGID_5_);}	.st6{fill:url(#SVGID_6_);}	.st7{fill:url(#SVGID_7_);}	.st8{fill:url(#SVGID_8_);}	.st9{stroke:#FFFFFF;stroke-miterlimit:10;}	.st10{fill:url(#SVGID_9_);}	.st11{fill:url(#SVGID_10_);}	.st12{fill:url(#SVGID_11_);}	.st13{fill:url(#SVGID_12_);}	.st14{fill:url(#SVGID_13_);}	.st15{fill:url(#SVGID_14_);}	.st16{fill:url(#SVGID_15_);}	.st17{fill:url(#SVGID_16_);}	.st18{fill:url(#SVGID_17_);}	.st19{fill:url(#SVGID_18_);}	.st20{fill:url(#SVGID_19_);}	.st21{fill:url(#SVGID_20_);}</style><g>	<path d="M473.77,613.01l-4.89-7.01c-0.31,0.03-0.62,0.03-0.92,0.03h-5.4v6.98h-4.45v-23.94h9.85c6.29,0,10.19,3.21,10.19,8.51  c0,3.62-1.85,6.29-5.1,7.56l5.51,7.86H473.77z M467.75,592.83h-5.2v9.54h5.2c3.9,0,5.92-1.78,5.92-4.79  C473.67,594.57,471.65,592.83,467.75,592.83z"></path>	<path d="M520.57,609.28v3.73h-17.95v-23.94h17.47v3.73h-13.03v6.22h11.56v3.66h-11.56v6.6H520.57z"></path>	<path d="M544.64,610.82l1.54-3.45c1.91,1.54,4.96,2.63,7.9,2.63c3.73,0,5.3-1.33,5.3-3.11c0-5.16-14.23-1.78-14.23-10.67  c0-3.86,3.08-7.15,9.64-7.15c2.87,0,5.88,0.75,7.97,2.12l-1.4,3.45c-2.15-1.27-4.51-1.88-6.6-1.88c-3.69,0-5.2,1.44-5.2,3.25  c0,5.1,14.19,1.78,14.19,10.57c0,3.83-3.11,7.11-9.68,7.11C550.35,613.69,546.62,612.53,544.64,610.82z"></path>	<path d="M587.81,602.58v-13.51h4.45v13.34c0,4.92,2.22,7.04,6.09,7.04c3.86,0,6.05-2.12,6.05-7.04v-13.34h4.38v13.51  c0,6.98-3.93,10.77-10.46,10.77C591.75,613.35,587.81,609.55,587.81,602.58z"></path>	<path d="M632.84,589.07h4.45v20.18h12.52v3.76h-16.96V589.07z"></path>	<path d="M681.8,592.83h-7.93v-3.76h20.31v3.76h-7.93v20.18h-4.45V592.83z"></path>	<path d="M737.15,607.47h-11.97l-2.36,5.54h-4.58l10.77-23.94h4.38l10.81,23.94h-4.65L737.15,607.47z M735.68,603.98l-4.51-10.46  l-4.48,10.46H735.68z"></path>	<path d="M768.25,589.07h10.46c7.76,0,13.06,4.79,13.06,11.97c0,7.18-5.3,11.97-13.06,11.97h-10.46V589.07z M778.51,609.24  c5.33,0,8.79-3.25,8.79-8.21c0-4.96-3.45-8.21-8.79-8.21h-5.81v16.41H778.51z"></path>	<path d="M816.04,601.38c0-7.08,5.47-12.31,12.89-12.31s12.89,5.2,12.89,12.31c0,7.11-5.47,12.31-12.89,12.31  S816.04,608.46,816.04,601.38z M837.34,601.38c0-4.89-3.59-8.41-8.41-8.41c-4.82,0-8.41,3.52-8.41,8.41c0,4.89,3.59,8.41,8.41,8.41  C833.75,609.79,837.34,606.27,837.34,601.38z"></path>	<path d="M865.88,610.82l1.54-3.45c1.92,1.54,4.96,2.63,7.9,2.63c3.73,0,5.3-1.33,5.3-3.11c0-5.16-14.23-1.78-14.23-10.67  c0-3.86,3.08-7.15,9.64-7.15c2.87,0,5.88,0.75,7.97,2.12l-1.4,3.45c-2.15-1.27-4.51-1.88-6.6-1.88c-3.69,0-5.2,1.44-5.2,3.25  c0,5.1,14.19,1.78,14.19,10.57c0,3.83-3.11,7.11-9.68,7.11C871.6,613.69,867.87,612.53,865.88,610.82z"></path></g><g>	<g>		<path d="M497,469.39h16.4l39.15,89.98h-22.37l-7.75-19.06h-34.95l-7.5,19.06h-21.86L497,469.39z M504.63,495.57l-10.93,27.96   h21.99L504.63,495.57z"></path>	</g>	<g>		<path d="M552.43,469.39h34.82c18.43,0,33.93,6.35,33.93,27.33c0,12.58-6.74,22.37-19.45,24.66l22.88,38h-23.77l-18.81-35.97h-9.79   v35.97h-19.83V469.39z M572.26,506.63h11.69c7.24,0,16.65-0.25,16.65-10.04c0-9.02-8.13-10.42-15.38-10.42h-12.96V506.63z"></path>	</g>	<g>		<path d="M663.24,469.39h16.4l39.15,89.98h-22.37l-7.75-19.06h-34.95l-7.5,19.06h-21.86L663.24,469.39z M670.86,495.57   l-10.93,27.96h21.99L670.86,495.57z"></path>	</g>	<g>		<path d="M790.69,559.38h-19.83v-35.97h-9.79l-18.81,35.97H718.5l22.88-38c-12.71-2.29-19.45-12.07-19.45-24.66   c0-20.97,15.51-27.33,33.93-27.33h34.82V559.38z M770.86,486.17H757.9c-7.25,0-15.38,1.4-15.38,10.42   c0,9.79,9.41,10.04,16.65,10.04h11.69V486.17z"></path>	</g>	<g>		<path d="M829.46,469.39h16.4L885,559.38h-22.37l-7.75-19.06h-34.95l-7.5,19.06h-21.86L829.46,469.39z M837.09,495.57l-10.93,27.96   h21.99L837.09,495.57z"></path>	</g></g><g>	<linearGradient id="SVGID_1_" gradientUnits="userSpaceOnUse" x1="311.8045" y1="598.2712" x2="384.2629" y2="459.3926">		<stop offset="0" style="stop-color:#F24405"></stop>		<stop offset="1" style="stop-color:#FF8A3B"></stop>	</linearGradient>	<path class="st0" d="M343.29,544.64c4.5,23.56-4.6,46.59-21.84,60.94c-2.17,1.81-4.47,3.48-6.89,4.99  c-6.71-7.15-11.84-15.92-14.7-25.85c4-1.37,7.82-3.07,11.44-5.05C325.67,571.79,336.85,559.35,343.29,544.64z"></path>	<linearGradient id="SVGID_2_" gradientUnits="userSpaceOnUse" x1="252.007" y1="590.9035" x2="332.2288" y2="450.731">		<stop offset="0" style="stop-color:#F24405"></stop>		<stop offset="1" style="stop-color:#FF8A3B"></stop>	</linearGradient>	<path class="st1" d="M341.14,481.25c-16.1-12.11-37.09-17.59-58.42-13.39c-30.36,5.98-52.64,29.84-58.06,58.49  c-1.56,8.27-1.72,16.94-0.26,25.7c0,0.02,0.01,0.04,0.01,0.06l0,0c0.12,0.7,0.24,1.39,0.38,2.09c1.39,7.05,3.74,13.67,6.9,19.74  c14.28,27.47,44.96,43.76,76.82,38.66c-0.52-0.53-1.02-1.07-1.52-1.62c-0.01-0.01-0.01-0.02-0.02-0.02  c-8.2-8.53-14.13-19.43-16.58-31.9c-5.8-29.47,9.66-58.2,35.75-70.3c4.56-2.12,9.45-3.72,14.6-4.74  c6.73-1.32,13.42-1.54,19.88-0.78C355.62,494.58,348.96,487.14,341.14,481.25z M291.03,510.31c-6.9,1.36-13.6-3.13-14.96-10.04  c-1.36-6.9,3.13-13.6,10.04-14.96c6.9-1.36,13.6,3.13,14.96,10.04C302.43,502.25,297.93,508.95,291.03,510.31z"></path>	<linearGradient id="SVGID_3_" gradientUnits="userSpaceOnUse" x1="322.1451" y1="602.662" x2="375.1949" y2="478.0163">		<stop offset="0" style="stop-color:#F24405"></stop>		<stop offset="1" style="stop-color:#FF8A3B"></stop>	</linearGradient>	<path class="st2" d="M362.78,507.26c0,0-7.67-0.46-15.9,1.27c-8.61,1.81-15.01,5.1-15.01,5.1s19.53,16.68,19.53,46.06  c0,27.69-17.92,44.12-17.92,44.12s6.58-3.18,15.26-11.64c10.23-9.96,18.87-24.21,21.17-43.01c1.09-8.87,0.53-17.08-1.04-24.42  C366.67,514.58,362.78,507.26,362.78,507.26z"></path>	<g>		<linearGradient id="SVGID_4_" gradientUnits="userSpaceOnUse" x1="226.6008" y1="610.7471" x2="370.3131" y2="466.1717">			<stop offset="0" style="stop-color:#F24405"></stop>			<stop offset="1" style="stop-color:#FF8A3B"></stop>		</linearGradient>		<path class="st3" d="M296.93,641.93c-13.76,0-27.11-2.7-39.68-8.01c-12.14-5.13-23.04-12.48-32.4-21.84   c-9.36-9.36-16.71-20.26-21.84-32.4C197.7,567.11,195,553.76,195,540s2.7-27.11,8.01-39.68c5.13-12.14,12.48-23.04,21.84-32.4   c9.36-9.36,20.26-16.71,32.4-21.84c12.57-5.32,25.92-8.01,39.68-8.01c13.76,0,27.11,2.7,39.68,8.01   c12.14,5.13,23.04,12.48,32.4,21.84c9.36,9.36,16.71,20.26,21.84,32.4c5.32,12.57,8.01,25.92,8.01,39.68s-2.7,27.11-8.01,39.68   c-5.13,12.14-12.48,23.04-21.84,32.4c-9.36,9.36-20.26,16.71-32.4,21.84C324.03,639.23,310.68,641.93,296.93,641.93z    M296.93,453.38c-47.76,0-86.62,38.86-86.62,86.62c0,47.76,38.86,86.62,86.62,86.62s86.62-38.86,86.62-86.62   C383.55,492.24,344.69,453.38,296.93,453.38z"></path>	</g></g></svg>