<?xml version="1.0" encoding="utf-8"?>
<!-- Generator: Adobe Illustrator 24.0.1, SVG Export Plug-In . SVG Version: 6.00 Build 0)  -->
<svg version="1.1" id="Camada_1" xmlns="http://www.w3.org/2000/svg" xmlns:xlink="http://www.w3.org/1999/xlink" x="0px" y="0px"
	 viewBox="0 0 1080 1080" style="enable-background:new 0 0 1080 1080;" xml:space="preserve">
<style type="text/css">
	.st0{fill:url(#SVGID_1_);}
	.st1{fill:url(#SVGID_2_);}
	.st2{fill:url(#SVGID_3_);}
	.st3{fill:url(#SVGID_4_);}
	.st4{fill:#FFFFFF;}
	.st5{fill:url(#SVGID_5_);}
	.st6{fill:url(#SVGID_6_);}
	.st7{fill:url(#SVGID_7_);}
	.st8{fill:url(#SVGID_8_);}
	.st9{stroke:#FFFFFF;stroke-miterlimit:10;}
	.st10{fill:url(#SVGID_9_);}
	.st11{fill:url(#SVGID_10_);}
	.st12{fill:url(#SVGID_11_);}
	.st13{fill:url(#SVGID_12_);}
	.st14{fill:url(#SVGID_13_);}
	.st15{fill:url(#SVGID_14_);}
	.st16{fill:url(#SVGID_15_);}
	.st17{fill:url(#SVGID_16_);}
	.st18{fill:url(#SVGID_17_);}
	.st19{fill:url(#SVGID_18_);}
	.st20{fill:url(#SVGID_19_);}
	.st21{fill:url(#SVGID_20_);}
</style>
<linearGradient id="SVGID_1_" gradientUnits="userSpaceOnUse" x1="560.556" y1="519.9191" x2="660.6609" y2="328.0514">
	<stop  offset="0" style="stop-color:#F24405"/>
	<stop  offset="1" style="stop-color:#FF8A3B"/>
</linearGradient>
<path class="st0" d="M604.05,445.82c6.22,32.54-6.36,64.37-30.18,84.2c-3,2.5-6.17,4.8-9.52,6.9c-9.27-9.88-16.36-21.99-20.31-35.71
	c5.53-1.89,10.8-4.24,15.8-6.98C579.71,483.33,595.15,466.14,604.05,445.82z"/>
<linearGradient id="SVGID_2_" gradientUnits="userSpaceOnUse" x1="477.9428" y1="509.7402" x2="588.7732" y2="316.0849">
	<stop  offset="0" style="stop-color:#F24405"/>
	<stop  offset="1" style="stop-color:#FF8A3B"/>
</linearGradient>
<path class="st1" d="M601.08,358.25c-22.25-16.73-51.24-24.3-80.7-18.5c-41.94,8.26-72.73,41.23-80.21,80.81
	c-2.16,11.43-2.38,23.41-0.36,35.5c0.01,0.03,0.01,0.06,0.01,0.08l0,0c0.16,0.96,0.34,1.92,0.53,2.88
	c1.92,9.75,5.17,18.89,9.53,27.27c19.73,37.95,62.12,60.46,106.13,53.4c-0.71-0.74-1.41-1.48-2.1-2.24
	c-0.01-0.01-0.02-0.02-0.03-0.03c-11.32-11.78-19.51-26.85-22.91-44.07c-8.02-40.72,13.35-80.41,49.39-97.13
	c6.3-2.92,13.05-5.15,20.17-6.55c9.29-1.83,18.54-2.13,27.46-1.07C621.1,376.67,611.88,366.38,601.08,358.25z M531.85,398.39
	c-9.54,1.88-18.79-4.33-20.67-13.87c-1.88-9.54,4.33-18.79,13.87-20.67c9.54-1.88,18.79,4.33,20.67,13.87
	C547.6,387.26,541.39,396.51,531.85,398.39z"/>
<linearGradient id="SVGID_3_" gradientUnits="userSpaceOnUse" x1="574.842" y1="525.985" x2="648.1331" y2="353.7809">
	<stop  offset="0" style="stop-color:#F24405"/>
	<stop  offset="1" style="stop-color:#FF8A3B"/>
</linearGradient>
<path class="st2" d="M630.98,394.19c0,0-10.59-0.64-21.97,1.76c-11.9,2.51-20.74,7.05-20.74,7.05s26.98,23.05,26.98,63.64
	c0,38.25-24.76,60.95-24.76,60.95s9.09-4.4,21.08-16.08c14.13-13.76,26.06-33.45,29.24-59.43c1.5-12.26,0.73-23.6-1.44-33.74
	C636.35,404.3,630.98,394.19,630.98,394.19z"/>
<g>
	<linearGradient id="SVGID_4_" gradientUnits="userSpaceOnUse" x1="442.8429" y1="537.1551" x2="641.3886" y2="337.4169">
		<stop  offset="0" style="stop-color:#F24405"/>
		<stop  offset="1" style="stop-color:#FF8A3B"/>
	</linearGradient>
	<path class="st3" d="M540,580.23c-19.01,0-37.45-3.72-54.81-11.07c-16.77-7.09-31.83-17.24-44.76-30.17
		c-12.93-12.93-23.08-27.99-30.17-44.76c-7.35-17.37-11.07-35.81-11.07-54.81s3.72-37.45,11.07-54.81
		c7.09-16.77,17.24-31.83,30.17-44.76c12.93-12.93,27.99-23.08,44.76-30.17c17.37-7.35,35.81-11.07,54.81-11.07
		s37.45,3.72,54.81,11.07c16.77,7.09,31.83,17.24,44.76,30.17c12.93,12.93,23.08,27.99,30.17,44.76
		c7.35,17.37,11.07,35.81,11.07,54.81s-3.72,37.45-11.07,54.81c-7.09,16.77-17.24,31.83-30.17,44.76
		c-12.93,12.93-27.99,23.08-44.76,30.17C577.45,576.51,559.01,580.23,540,580.23z M540,319.74c-65.99,0-119.68,53.69-119.68,119.68
		c0,65.99,53.69,119.68,119.68,119.68s119.68-53.69,119.68-119.68C659.68,373.43,605.99,319.74,540,319.74z"/>
</g>
<g>
	<g>
		<path d="M333.1,614.78h19.43l46.4,106.66h-26.51l-9.19-22.6H321.8l-8.89,22.6H287L333.1,614.78z M342.14,645.81l-12.96,33.14
			h26.06L342.14,645.81z"/>
	</g>
	<g>
		<path d="M398.8,614.78h41.28c21.84,0,40.22,7.53,40.22,32.39c0,14.91-7.98,26.51-23.05,29.23l27.12,45.04H456.2l-22.3-42.63h-11.6
			v42.63h-23.5V614.78z M422.3,658.92h13.86c8.59,0,19.73-0.3,19.73-11.9c0-10.7-9.64-12.35-18.23-12.35H422.3V658.92z"/>
	</g>
	<g>
		<path d="M530.14,614.78h19.43l46.4,106.66h-26.51l-9.19-22.6h-41.43l-8.89,22.6h-25.91L530.14,614.78z M539.18,645.81
			l-12.96,33.14h26.06L539.18,645.81z"/>
	</g>
	<g>
		<path d="M681.21,721.44h-23.5V678.8h-11.6l-22.3,42.63h-28.17l27.12-45.04c-15.06-2.71-23.05-14.31-23.05-29.23
			c0-24.86,18.38-32.39,40.22-32.39h41.28V721.44z M657.71,634.67h-15.37c-8.59,0-18.23,1.66-18.23,12.35
			c0,11.6,11.15,11.9,19.74,11.9h13.86V634.67z"/>
	</g>
	<g>
		<path d="M727.17,614.78h19.43L793,721.44h-26.51l-9.19-22.6h-41.43l-8.89,22.6h-25.91L727.17,614.78z M736.21,645.81l-12.96,33.14
			h26.06L736.21,645.81z"/>
	</g>
</g>
<g>
	<path d="M342.23,780.72l-4.89-7.01c-0.31,0.03-0.62,0.03-0.92,0.03h-5.4v6.98h-4.45v-23.94h9.85c6.29,0,10.19,3.21,10.19,8.51
		c0,3.62-1.85,6.29-5.09,7.56l5.51,7.86H342.23z M336.21,760.54h-5.2v9.54h5.2c3.9,0,5.92-1.78,5.92-4.79
		C342.13,762.29,340.11,760.54,336.21,760.54z"/>
	<path d="M389.03,776.99v3.73h-17.95v-23.94h17.47v3.73h-13.03v6.22h11.56v3.66h-11.56v6.6H389.03z"/>
	<path d="M413.09,778.53l1.54-3.45c1.91,1.54,4.96,2.63,7.9,2.63c3.73,0,5.3-1.33,5.3-3.11c0-5.16-14.22-1.78-14.22-10.67
		c0-3.86,3.08-7.15,9.64-7.15c2.87,0,5.88,0.75,7.97,2.12l-1.4,3.45c-2.15-1.27-4.51-1.88-6.6-1.88c-3.69,0-5.2,1.44-5.2,3.25
		c0,5.09,14.19,1.78,14.19,10.57c0,3.83-3.11,7.11-9.68,7.11C418.8,781.4,415.07,780.24,413.09,778.53z"/>
	<path d="M456.27,770.29v-13.51h4.45v13.34c0,4.92,2.22,7.04,6.09,7.04c3.86,0,6.05-2.12,6.05-7.04v-13.34h4.38v13.51
		c0,6.98-3.93,10.77-10.46,10.77C460.2,781.06,456.27,777.26,456.27,770.29z"/>
	<path d="M501.29,756.78h4.45v20.17h12.51v3.76h-16.96V756.78z"/>
	<path d="M550.24,760.54h-7.93v-3.76h20.31v3.76h-7.93v20.17h-4.45V760.54z"/>
	<path d="M605.59,775.18h-11.97l-2.36,5.54h-4.58l10.77-23.94h4.38l10.81,23.94h-4.65L605.59,775.18z M604.12,771.69l-4.51-10.46
		l-4.48,10.46H604.12z"/>
	<path d="M636.69,756.78h10.46c7.76,0,13.06,4.79,13.06,11.97c0,7.18-5.3,11.97-13.06,11.97h-10.46V756.78z M646.95,776.95
		c5.33,0,8.79-3.25,8.79-8.21c0-4.96-3.45-8.21-8.79-8.21h-5.81v16.41H646.95z"/>
	<path d="M684.47,769.09c0-7.08,5.47-12.31,12.89-12.31s12.89,5.2,12.89,12.31c0,7.11-5.47,12.31-12.89,12.31
		S684.47,776.17,684.47,769.09z M705.77,769.09c0-4.89-3.59-8.41-8.41-8.41c-4.82,0-8.41,3.52-8.41,8.41c0,4.89,3.59,8.41,8.41,8.41
		C702.18,777.5,705.77,773.98,705.77,769.09z"/>
	<path d="M734.31,778.53l1.54-3.45c1.92,1.54,4.96,2.63,7.9,2.63c3.73,0,5.3-1.33,5.3-3.11c0-5.16-14.22-1.78-14.22-10.67
		c0-3.86,3.08-7.15,9.64-7.15c2.87,0,5.88,0.75,7.97,2.12l-1.4,3.45c-2.15-1.27-4.51-1.88-6.6-1.88c-3.69,0-5.2,1.44-5.2,3.25
		c0,5.09,14.19,1.78,14.19,10.57c0,3.83-3.11,7.11-9.68,7.11C740.03,781.4,736.3,780.24,734.31,778.53z"/>
</g>
</svg>
